<?xml version="1.0" encoding="utf-8"?>
<!-- Generator: Adobe Illustrator 18.0.0, SVG Export Plug-In . SVG Version: 6.00 Build 0)  -->
<!DOCTYPE svg PUBLIC "-//W3C//DTD SVG 1.1//EN" "http://www.w3.org/Graphics/SVG/1.1/DTD/svg11.dtd">
<svg version="1.1" id="Layer_1" xmlns="http://www.w3.org/2000/svg" xmlns:xlink="http://www.w3.org/1999/xlink" x="0px" y="0px"
	 viewBox="0 0 112 56.6667" enable-background="new 0 0 112 56.6667" xml:space="preserve">
<g>
	<defs>
		<rect id="SVGID_1_" width="112" height="55.0154"/>
	</defs>
	<clipPath id="SVGID_2_">
		<use xlink:href="#SVGID_1_"  overflow="visible"/>
	</clipPath>
	<path clip-path="url(#SVGID_2_)" fill-rule="evenodd" clip-rule="evenodd" fill="#FFFFFF" d="M19.9824,41.9242
		c0,0.8278-0.1269,1.5674-0.3795,2.2186c-0.2473,0.6514-0.589,1.1916-1.0256,1.6204c-0.5063,0.5059-1.0637,0.8662-1.6731,1.0806
		c-0.6033,0.215-1.3706,0.3219-2.3017,0.3219H8.9983V30.0509h4.9831c1.0349,0,1.7905,0.046,2.2678,0.1379
		c0.4828,0.0919,0.9597,0.2955,1.431,0.6092c0.4885,0.3298,0.8506,0.7741,1.0863,1.3332c0.2414,0.5518,0.3626,1.1839,0.3626,1.8963
		c0,0.828-0.1642,1.5599-0.4918,2.1959c-0.3276,0.6284-0.7904,1.1186-1.388,1.4708v0.0921
		c0.8388,0.2223,1.5027,0.6822,1.9917,1.3794C19.7348,39.8632,19.9822,40.7829,19.9824,41.9242 M15.7404,34.8898
		c0-0.2832-0.0547-0.5666-0.164-0.8504c-0.1033-0.2834-0.2902-0.4938-0.5602-0.6323c-0.2414-0.1222-0.5433-0.1873-0.9054-0.1955
		c-0.3564-0.0149-0.8596-0.0224-1.5089-0.0229h-0.3104v3.6208h0.5173c0.523,0,0.9685-0.0117,1.3365-0.0347
		c0.3678-0.0229,0.658-0.0994,0.8709-0.2298c0.2988-0.1761,0.4942-0.4021,0.5861-0.678
		C15.6943,35.5837,15.74,35.2581,15.7404,34.8898 M16.5508,41.8554c0-0.5439-0.0805-0.9617-0.2414-1.2528
		c-0.155-0.299-0.4226-0.5208-0.8016-0.6666c-0.259-0.0996-0.6154-0.1532-1.0692-0.1612c-0.4545-0.0073-0.9285-0.011-1.4227-0.0114
		h-0.7244v4.2644h0.2416c0.9311,0,1.5979-0.0037,2.0003-0.0114c0.4023-0.0075,0.7728-0.1069,1.1123-0.2988
		c0.3447-0.1915,0.58-0.4446,0.7068-0.7589C16.4842,42.6372,16.5504,42.2693,16.5508,41.8554"/>
	<path clip-path="url(#SVGID_2_)" fill-rule="evenodd" clip-rule="evenodd" fill="#FFFFFF" d="M33.2279,47.1657h-3.4227
		l-0.888-3.4599h-4.7593l-0.8885,3.4599h-3.3363L24.675,30.051h3.811L33.2279,47.1657z M28.1153,40.5682l-1.5779-6.138
		l-1.5779,6.138H28.1153z"/>
	<polygon clip-path="url(#SVGID_2_)" fill-rule="evenodd" clip-rule="evenodd" fill="#FFFFFF" points="45.6627,47.1657 
		42.4726,47.1657 37.0238,35.4186 37.0238,47.1657 33.9889,47.1657 33.9889,30.051 37.9461,30.051 42.628,39.8554 42.628,30.051 
		45.6627,30.051 	"/>
	<path clip-path="url(#SVGID_2_)" fill-rule="evenodd" clip-rule="evenodd" fill="#FFFFFF" d="M54.172,35.292
		c0-0.4287-0.0666-0.7965-0.1985-1.1032c-0.1321-0.3065-0.3593-0.5479-0.6813-0.7242c-0.224-0.1225-0.4857-0.195-0.7845-0.2183
		c-0.299-0.0303-0.6468-0.0457-1.0432-0.046H50.266v4.6091h1.0173c0.5285,0,0.9713-0.0343,1.3277-0.1036
		c0.3562-0.0688,0.655-0.2258,0.8966-0.4712c0.23-0.2374,0.3969-0.498,0.5004-0.7816C54.117,36.1622,54.1713,35.7755,54.172,35.292
		 M59.3363,47.1657h-4.0436l-3.5006-6.2759h-1.526v6.2759h-3.2935V30.051h5.5525c0.7585,0,1.4111,0.0574,1.957,0.1722
		c0.5459,0.115,1.0575,0.3645,1.5346,0.7475c0.4832,0.383,0.8649,0.8812,1.1466,1.4942c0.2876,0.6055,0.4309,1.3675,0.4311,2.287
		c0,1.2646-0.2214,2.2955-0.6637,3.0923c-0.4369,0.7968-1.0632,1.4594-1.8791,1.9882L59.3363,47.1657z"/>
	<path clip-path="url(#SVGID_2_)" fill-rule="evenodd" clip-rule="evenodd" fill="#FFFFFF" d="M70.2375,40.9703
		c0,2.115-0.483,3.7354-1.4489,4.8619c-0.9654,1.1263-2.3879,1.6896-4.2674,1.6896c-1.88,0-3.3025-0.5633-4.2681-1.6896
		c-0.9595-1.1263-1.4396-2.7432-1.4396-4.8505V30.0511h3.328v10.6776c0,1.1881,0.1864,2.073,0.5604,2.6554
		c0.3735,0.5826,0.9799,0.8733,1.8193,0.8733c0.8275,0,1.4311-0.2794,1.8103-0.8388c0.385-0.5593,0.5776-1.4559,0.5778-2.69V30.0511
		l3.3282-0.0002V40.9703z"/>
	<path clip-path="url(#SVGID_2_)" fill-rule="evenodd" clip-rule="evenodd" fill="#FFFFFF" d="M78.7416,35.292
		c0-0.4287-0.0666-0.7965-0.1983-1.1032c-0.1324-0.3065-0.3595-0.5479-0.6811-0.7242c-0.2242-0.1225-0.4857-0.195-0.7844-0.2183
		c-0.299-0.0303-0.6468-0.0457-1.0437-0.046h-1.1984v4.6089h1.0177c0.5285,0,0.9711-0.0343,1.3277-0.1033
		c0.3564-0.0688,0.655-0.2258,0.8966-0.4712c0.2298-0.2374,0.3964-0.4982,0.5004-0.7816
		C78.687,36.162,78.7411,35.7755,78.7416,35.292 M83.906,47.1657h-4.0434l-3.5006-6.2761h-1.5265v6.2761h-3.293V30.0508h5.5523
		c0.7587,0,1.4111,0.0576,1.9572,0.1724c0.5454,0.115,1.0575,0.3645,1.5344,0.7475c0.483,0.383,0.8652,0.8812,1.1468,1.4942
		c0.2874,0.6055,0.4309,1.3675,0.4311,2.287c0,1.2646-0.2214,2.2953-0.664,3.0923c-0.4371,0.7968-1.063,1.4594-1.8793,1.9882
		L83.906,47.1657z"/>
	<path clip-path="url(#SVGID_2_)" fill-rule="evenodd" clip-rule="evenodd" fill="#FFFFFF" d="M97.7233,47.1655h-3.4232
		l-0.8878-3.4595h-4.7595l-0.8876,3.4597h-3.3368l4.7419-17.1149h3.8108L97.7233,47.1655z M92.6102,40.568l-1.5777-6.1378
		l-1.5777,6.1378H92.6102z"/>
	<polygon clip-path="url(#SVGID_2_)" fill-rule="evenodd" clip-rule="evenodd" fill="#FFFFFF" points="107.7439,47.1654 
		98.4842,47.1654 98.4842,30.0508 101.795,30.0508 101.795,43.855 107.7439,43.855 	"/>
	<polygon clip-path="url(#SVGID_2_)" fill-rule="evenodd" clip-rule="evenodd" fill="#FFFFFF" points="12.1298,53.7992 
		9.0241,53.7992 9.0241,49.5073 12.1298,49.5073 12.1298,50.3395 10.1342,50.3395 10.1342,51.0776 11.9882,51.0776 11.9882,51.91 
		10.1342,51.91 10.1342,52.9668 12.1298,52.9668 	"/>
	
		<rect x="12.9079" y="49.3122" clip-path="url(#SVGID_2_)" fill-rule="evenodd" clip-rule="evenodd" fill="#FFFFFF" width="1.0395" height="4.4869"/>
	<path clip-path="url(#SVGID_2_)" fill-rule="evenodd" clip-rule="evenodd" fill="#FFFFFF" d="M18.7149,52.9535v-0.6776
		c-0.1394,0.0119-0.29,0.0277-0.4525,0.0479c-0.162,0.02-0.2854,0.044-0.3691,0.071c-0.1031,0.0328-0.1818,0.0805-0.2363,0.1431
		c-0.0545,0.0627-0.0818,0.1453-0.0818,0.2476c0,0.0677,0.0059,0.1227,0.0174,0.1651c0.0112,0.0427,0.04,0.0831,0.086,0.1216
		c0.0438,0.0389,0.0963,0.0671,0.1574,0.0855c0.0611,0.0185,0.1565,0.0275,0.2862,0.0275c0.1033,0,0.2078-0.0211,0.3133-0.0635
		C18.5416,53.079,18.6348,53.0232,18.7149,52.9535 M18.7149,53.4561c-0.0554,0.0424-0.1244,0.0932-0.2067,0.1528
		c-0.0827,0.0596-0.1603,0.1069-0.2333,0.1414c-0.1013,0.0464-0.2069,0.0809-0.3162,0.1035
		c-0.1095,0.0226-0.2291,0.0341-0.3592,0.0341c-0.3069,0-0.5635-0.0956-0.7706-0.2863c-0.2073-0.1908-0.3107-0.4344-0.3107-0.7312
		c0-0.237,0.0528-0.4307,0.1583-0.5811c0.1053-0.1502,0.2548-0.2687,0.4485-0.3555c0.1919-0.0866,0.4294-0.1484,0.713-0.1851
		c0.2836-0.0365,0.5782-0.0635,0.8825-0.0807v-0.0174c0-0.1787-0.0726-0.3021-0.2181-0.3702
		c-0.1455-0.0684-0.3604-0.1022-0.6438-0.1022c-0.1702,0-0.352,0.0299-0.5457,0.0904c-0.1933,0.0605-0.3324,0.1071-0.4166,0.1398
		h-0.0945v-0.7829c0.1093-0.029,0.2869-0.0631,0.5332-0.1027c0.246-0.0394,0.4929-0.0591,0.7403-0.0591
		c0.5883,0,1.0131,0.091,1.2749,0.2731c0.2614,0.1816,0.3922,0.4672,0.3922,0.8559v2.2067h-1.0276V53.4561z"/>
	<path clip-path="url(#SVGID_2_)" fill-rule="evenodd" clip-rule="evenodd" fill="#FFFFFF" d="M23.7585,51.5068v2.2925h-1.0393
		v-1.616c0-0.1572-0.0037-0.2911-0.0114-0.4017c-0.0079-0.1104-0.029-0.1999-0.0635-0.2695
		c-0.035-0.0688-0.0873-0.1192-0.1576-0.1508c-0.0704-0.0317-0.1691-0.0475-0.2961-0.0475c-0.1022,0-0.2016,0.0207-0.2977,0.0618
		c-0.0963,0.0413-0.1834,0.0851-0.2603,0.1313v2.2925h-1.0391V50.564h1.0391v0.3577c0.179-0.1403,0.3498-0.2495,0.5129-0.328
		c0.1633-0.0792,0.3441-0.1183,0.5417-0.1183c0.2135,0,0.4015,0.0473,0.5646,0.1425c0.1633,0.0952,0.2911,0.2346,0.3834,0.4191
		c0.2071-0.1746,0.4089-0.312,0.6046-0.412c0.1959-0.0996,0.3878-0.1495,0.576-0.1495c0.3494,0,0.6147,0.1044,0.7963,0.314
		c0.1814,0.2091,0.272,0.5107,0.272,0.9045v2.1054h-1.0393v-1.616c0-0.1592-0.0033-0.2937-0.0101-0.4032
		c-0.0068-0.1093-0.0275-0.1983-0.062-0.268c-0.0328-0.0688-0.0846-0.1192-0.1561-0.1508c-0.071-0.0317-0.171-0.0475-0.3003-0.0475
		c-0.0866,0-0.1717,0.0147-0.2546,0.0444C23.979,51.3881,23.8779,51.4375,23.7585,51.5068"/>
	<path clip-path="url(#SVGID_2_)" fill-rule="evenodd" clip-rule="evenodd" fill="#FFFFFF" d="M27.7837,53.7991H26.744v-3.2352
		h1.0397V53.7991z M27.8134,50.0976H26.715v-0.7853h1.0984V50.0976z"/>
	<path clip-path="url(#SVGID_2_)" fill-rule="evenodd" clip-rule="evenodd" fill="#FFFFFF" d="M31.815,53.426
		c0,0.3034-0.0433,0.5582-0.1299,0.766c-0.0864,0.2071-0.2075,0.3694-0.3634,0.4865c-0.1559,0.1189-0.3439,0.2047-0.5639,0.2577
		c-0.2201,0.0528-0.4687,0.0791-0.7458,0.0791c-0.2251,0-0.447-0.0134-0.6655-0.0405c-0.2181-0.027-0.4067-0.0596-0.5663-0.0983
		v-0.8117h0.1266c0.1269,0.0503,0.2819,0.0965,0.4641,0.1381c0.1829,0.0416,0.3465,0.0624,0.4905,0.0624
		c0.1924,0,0.3487-0.0176,0.469-0.0532c0.1203-0.0352,0.2117-0.0855,0.2753-0.1506c0.0596-0.0613,0.1029-0.1398,0.1297-0.2359
		c0.027-0.0956,0.0407-0.2104,0.0407-0.3445v-0.0605c-0.1253,0.1018-0.2638,0.1827-0.416,0.2418
		c-0.1519,0.0596-0.3214,0.0893-0.5081,0.0893c-0.454,0-0.8045-0.1363-1.0509-0.4087c-0.246-0.2724-0.3694-0.6873-0.3694-1.244
		c0-0.2667,0.0376-0.4973,0.1128-0.691c0.075-0.1939,0.1807-0.3628,0.3173-0.5066c0.1269-0.1346,0.2834-0.2392,0.4692-0.314
		c0.1856-0.0748,0.3757-0.1126,0.5701-0.1126c0.175,0,0.3346,0.0209,0.4777,0.0622c0.1436,0.0413,0.2737,0.0985,0.3913,0.171
		l0.0378-0.1444h1.0072V53.426z M30.7759,52.7763v-1.4647c-0.0596-0.0251-0.1328-0.0446-0.219-0.0591
		c-0.0864-0.0143-0.164-0.0215-0.2333-0.0215c-0.2722,0-0.4769,0.0783-0.6132,0.2344c-0.1361,0.1568-0.2043,0.3749-0.2043,0.6552
		c0,0.3107,0.058,0.5274,0.1741,0.6503c0.1161,0.1227,0.2882,0.184,0.5167,0.184c0.1036,0,0.2054-0.0163,0.3049-0.0488
		C30.602,52.8733,30.6933,52.83,30.7759,52.7763"/>
	<path clip-path="url(#SVGID_2_)" fill-rule="evenodd" clip-rule="evenodd" fill="#FFFFFF" d="M36.0075,52.1832
		c0,0.5316-0.155,0.9507-0.4661,1.2569c-0.3104,0.3063-0.7469,0.4593-1.3084,0.4593s-0.9977-0.153-1.3084-0.4593
		c-0.3104-0.3063-0.4659-0.7253-0.4659-1.2569c0-0.5358,0.1563-0.9564,0.4685-1.2618c0.3129-0.3052,0.748-0.458,1.3057-0.458
		c0.5657,0,1.0028,0.1535,1.3115,0.4608C35.8532,51.2312,36.0075,51.6512,36.0075,52.1832 M34.7304,52.9666
		c0.0675-0.0822,0.1181-0.1812,0.1519-0.297c0.0336-0.1156,0.0506-0.2761,0.0506-0.4808c0-0.1895-0.0174-0.3483-0.0521-0.4764
		c-0.0345-0.1282-0.0824-0.2306-0.1449-0.3076c-0.0613-0.0783-0.1354-0.1335-0.2223-0.166c-0.0868-0.0328-0.1803-0.049-0.2805-0.049
		c-0.1005,0-0.1895,0.0134-0.2676,0.0402c-0.078,0.027-0.1528,0.0805-0.224,0.1607c-0.0635,0.0748-0.1143,0.177-0.1515,0.3071
		c-0.0378,0.1304-0.0567,0.2937-0.0567,0.4909c0,0.1761,0.0167,0.3287,0.0492,0.458c0.0332,0.1291,0.0811,0.233,0.1447,0.3113
		c0.062,0.0748,0.1354,0.1293,0.221,0.1636c0.0862,0.0347,0.1836,0.0517,0.2935,0.0517c0.0945,0,0.1847-0.0156,0.2706-0.047
		C34.598,53.0943,34.6708,53.0413,34.7304,52.9666"/>
	<path clip-path="url(#SVGID_2_)" fill-rule="evenodd" clip-rule="evenodd" fill="#FFFFFF" d="M41.7226,54.9856h-1.0393v-1.5043
		c-0.1695,0.1365-0.3348,0.2381-0.4969,0.3054c-0.1614,0.0673-0.3434,0.1011-0.5455,0.1011c-0.3966,0-0.7126-0.1517-0.9485-0.4551
		c-0.2359-0.3034-0.3538-0.7121-0.3538-1.2266c0-0.2746,0.04-0.518,0.1198-0.7301c0.0798-0.2119,0.1891-0.3942,0.3278-0.5457
		c0.1308-0.1438,0.2896-0.2559,0.4764-0.3353c0.1866-0.0798,0.3733-0.1198,0.56-0.1198c0.1829,0,0.3364,0.0209,0.4606,0.0618
		c0.124,0.0411,0.2555,0.0978,0.394,0.1708l0.0378-0.1438h1.0074V54.9856z M40.6833,52.909v-1.5916
		c-0.073-0.031-0.1499-0.0528-0.2306-0.0664c-0.0802-0.0134-0.1541-0.0202-0.2216-0.0202c-0.2726,0-0.4769,0.0853-0.613,0.2557
		c-0.1365,0.1706-0.2045,0.407-0.2045,0.7093c0,0.3177,0.055,0.5479,0.164,0.6917c0.1095,0.1433,0.2852,0.2152,0.5268,0.2152
		c0.0941,0,0.1941-0.018,0.2995-0.0536C40.5094,53.0134,40.6026,52.9668,40.6833,52.909"/>
	<path clip-path="url(#SVGID_2_)" fill-rule="evenodd" clip-rule="evenodd" fill="#FFFFFF" d="M45.8264,53.7992h-1.0395v-0.3579
		c-0.1917,0.1458-0.3669,0.2568-0.5261,0.3326c-0.1592,0.0756-0.3487,0.1139-0.5692,0.1139c-0.3566,0-0.631-0.1027-0.8238-0.3085
		c-0.1928-0.2053-0.2891-0.5085-0.2891-0.91V50.564h1.0393v1.6041c0,0.1631,0.0053,0.299,0.0156,0.4074
		c0.0106,0.1088,0.0352,0.1985,0.0737,0.2696c0.0365,0.071,0.0917,0.1229,0.1656,0.1554c0.0741,0.0328,0.1772,0.049,0.3093,0.049
		c0.0886,0,0.1864-0.0163,0.2942-0.049c0.1075-0.0325,0.2108-0.0807,0.3106-0.144V50.564l1.0395-0.0002V53.7992z"/>
	<path clip-path="url(#SVGID_2_)" fill-rule="evenodd" clip-rule="evenodd" fill="#FFFFFF" d="M49.9021,52.3764h-2.374
		c0.0156,0.2539,0.1121,0.4485,0.29,0.5833c0.1779,0.1343,0.4397,0.2018,0.7858,0.2018c0.219,0,0.4311-0.04,0.6367-0.12
		c0.2058-0.08,0.3683-0.166,0.4874-0.2579h0.1152v0.8352c-0.2346,0.0943-0.4558,0.1627-0.6635,0.2053
		c-0.2073,0.0424-0.4371,0.0638-0.6893,0.0638c-0.6497,0-1.1477-0.1462-1.4939-0.4384c-0.3461-0.292-0.5191-0.7079-0.5191-1.2481
		c0-0.534,0.164-0.9573,0.4914-1.2695c0.328-0.3126,0.7772-0.4685,1.3479-0.4685c0.5266,0,0.9223,0.1332,1.1877,0.3997
		c0.2654,0.2662,0.3977,0.6497,0.3977,1.1496V52.3764z M48.8687,51.7681c-0.0057-0.2172-0.0596-0.3808-0.1609-0.4905
		c-0.1016-0.1097-0.2599-0.1647-0.4747-0.1647c-0.1994,0-0.3632,0.0519-0.492,0.1561c-0.1284,0.1038-0.2001,0.2702-0.2152,0.4991
		H48.8687z"/>
	<path clip-path="url(#SVGID_2_)" fill-rule="evenodd" clip-rule="evenodd" fill="#FFFFFF" d="M54.54,53.7719
		c-0.1117,0.029-0.2302,0.0512-0.3551,0.0677c-0.1253,0.0163-0.2783,0.0244-0.4595,0.0244c-0.4043,0-0.7053-0.0816-0.9027-0.2449
		c-0.1974-0.1634-0.2961-0.4432-0.2961-0.8392v-1.5135h-0.4252v-0.7027h0.4252v-0.9269h1.0393v0.9269H54.54v0.7027h-0.9742v1.1496
		c0,0.1139,0.0011,0.2133,0.0028,0.2979c0.0022,0.0844,0.0172,0.1607,0.0464,0.2282c0.027,0.0673,0.0747,0.1205,0.1431,0.1598
		c0.0684,0.0398,0.1682,0.0596,0.2992,0.0596c0.0539,0,0.1249-0.0119,0.2124-0.0356c0.0877-0.0235,0.1488-0.0453,0.1834-0.0649
		H54.54V53.7719z"/>
	<path clip-path="url(#SVGID_2_)" fill-rule="evenodd" clip-rule="evenodd" fill="#FFFFFF" d="M58.2528,52.3764h-2.374
		c0.0156,0.2539,0.1121,0.4485,0.29,0.5831c0.1774,0.1346,0.4395,0.202,0.7855,0.202c0.2188,0,0.4314-0.04,0.6369-0.12
		c0.2053-0.08,0.3678-0.166,0.487-0.2579h0.1152v0.8352c-0.2346,0.0943-0.4558,0.1627-0.6631,0.2053
		c-0.2078,0.0424-0.4375,0.0638-0.6897,0.0638c-0.6497,0-1.1477-0.1462-1.4939-0.4384c-0.3458-0.292-0.5189-0.7079-0.5189-1.2481
		c0-0.534,0.1638-0.9573,0.4914-1.2695c0.3278-0.3126,0.777-0.4685,1.3479-0.4685c0.5266,0,0.9225,0.1332,1.1875,0.3997
		c0.2654,0.2662,0.3982,0.6495,0.3982,1.1496V52.3764z M57.2195,51.7681c-0.0059-0.2172-0.0596-0.3808-0.1611-0.4905
		c-0.1016-0.1097-0.2599-0.1647-0.4747-0.1647c-0.1996,0-0.3634,0.0519-0.4918,0.1561c-0.1286,0.1038-0.2003,0.2702-0.2155,0.4991
		H57.2195z"/>
	<path clip-path="url(#SVGID_2_)" fill-rule="evenodd" clip-rule="evenodd" fill="#FFFFFF" d="M62.7784,52.9535v-0.6778
		c-0.1394,0.0121-0.29,0.0277-0.4525,0.0482c-0.1623,0.02-0.2851,0.0438-0.3691,0.071c-0.1033,0.0323-0.1823,0.0805-0.2363,0.1431
		c-0.0545,0.0627-0.0816,0.1451-0.0816,0.2473c0,0.0677,0.0057,0.1227,0.0171,0.1651c0.0112,0.0429,0.04,0.0831,0.0857,0.1218
		c0.044,0.0387,0.0965,0.0671,0.1579,0.0855c0.0605,0.0182,0.1563,0.0275,0.2863,0.0275c0.1027,0,0.2073-0.0211,0.3135-0.0635
		C62.6052,53.079,62.6984,53.023,62.7784,52.9535 M62.7784,53.4561c-0.0556,0.0422-0.1244,0.0932-0.2071,0.1528
		c-0.0825,0.0596-0.16,0.1069-0.2328,0.1414c-0.1014,0.0462-0.2069,0.0809-0.3162,0.1035c-0.109,0.0226-0.2293,0.0341-0.3595,0.0341
		c-0.3067,0-0.5637-0.0956-0.7706-0.2863c-0.2071-0.1911-0.3104-0.4344-0.3104-0.7312c0-0.2372,0.0525-0.4307,0.1579-0.5811
		c0.1055-0.1502,0.2553-0.2689,0.4487-0.3555c0.1917-0.0866,0.4296-0.1484,0.7132-0.1851c0.2836-0.0365,0.5778-0.0635,0.8823-0.0807
		v-0.0176c0-0.1785-0.0728-0.3019-0.2183-0.37c-0.1451-0.0684-0.3599-0.1025-0.6433-0.1025c-0.1704,0-0.3524,0.0301-0.5459,0.0904
		c-0.1935,0.0605-0.3322,0.1073-0.4164,0.1398h-0.0948v-0.7827c0.1093-0.0292,0.2867-0.0633,0.5334-0.1027
		c0.2462-0.0394,0.4929-0.0594,0.7398-0.0594c0.5888,0,1.0135,0.091,1.2754,0.2731c0.2614,0.1818,0.392,0.4674,0.392,0.8559v2.2069
		h-1.0274V53.4561z"/>
	<polygon clip-path="url(#SVGID_2_)" fill-rule="evenodd" clip-rule="evenodd" fill="#FFFFFF" points="66.1225,52.6475 
		66.8574,50.5639 67.9281,50.5639 66.1308,54.9857 65.0005,54.9857 65.5172,53.7688 64.2613,50.5639 65.3521,50.5639 	"/>
	<path clip-path="url(#SVGID_2_)" fill-rule="evenodd" clip-rule="evenodd" fill="#FFFFFF" d="M71.6335,53.7992h-1.039v-0.3579
		c-0.1922,0.1458-0.3674,0.2568-0.5266,0.3326c-0.1592,0.0756-0.3487,0.1137-0.5694,0.1137c-0.3564,0-0.6308-0.1025-0.8236-0.3082
		c-0.1928-0.2053-0.2889-0.5088-0.2889-0.91v-2.1056h1.039v1.6043c0,0.1631,0.0053,0.299,0.0156,0.4074
		c0.0106,0.1086,0.0352,0.1985,0.0737,0.2693c0.0365,0.071,0.0917,0.1231,0.1655,0.1557c0.0741,0.0328,0.1772,0.049,0.3098,0.049
		c0.0882,0,0.186-0.0163,0.2935-0.049c0.1075-0.0325,0.2111-0.0807,0.3113-0.144v-2.2927h1.039V53.7992z"/>
	<path clip-path="url(#SVGID_2_)" fill-rule="evenodd" clip-rule="evenodd" fill="#FFFFFF" d="M75.6679,53.7992h-1.0393V53.462
		c-0.179,0.146-0.3463,0.2533-0.5024,0.3223c-0.1557,0.069-0.3359,0.1033-0.5397,0.1033c-0.3944,0-0.7104-0.1515-0.9469-0.4549
		c-0.2366-0.3034-0.3551-0.7126-0.3551-1.2266c0-0.2748,0.04-0.5182,0.12-0.7304c0.0796-0.2119,0.1886-0.394,0.3274-0.5455
		c0.131-0.1438,0.2898-0.2559,0.4766-0.3353c0.1867-0.08,0.3731-0.1198,0.5598-0.1198c0.1946,0,0.3538,0.0207,0.4778,0.0622
		c0.1242,0.0411,0.2515,0.0937,0.3826,0.1568v-1.382h1.0393V53.7992z M74.6287,52.9088v-1.5913
		c-0.0728-0.031-0.1495-0.0532-0.2302-0.0664c-0.0807-0.0134-0.1546-0.0202-0.2216-0.0202c-0.2726,0-0.4771,0.0853-0.6132,0.2557
		c-0.1363,0.1704-0.2045,0.407-0.2045,0.7093c0,0.3177,0.0547,0.5479,0.1642,0.6915c0.1093,0.1433,0.2847,0.2152,0.5268,0.2152
		c0.0939,0,0.1937-0.0178,0.2992-0.0534C74.4552,53.0135,74.5484,52.9666,74.6287,52.9088"/>
	<path clip-path="url(#SVGID_2_)" fill-rule="evenodd" clip-rule="evenodd" fill="#FFFFFF" d="M78.5084,52.9535v-0.6778
		c-0.1394,0.0121-0.2902,0.0277-0.4527,0.0482c-0.1623,0.02-0.2854,0.0438-0.3691,0.071c-0.1031,0.0323-0.182,0.0805-0.2361,0.1431
		c-0.0547,0.0627-0.0818,0.1451-0.0818,0.2473c0,0.0677,0.0057,0.1227,0.0169,0.1651c0.0117,0.0429,0.0402,0.0831,0.0862,0.1218
		c0.0438,0.0387,0.0963,0.0671,0.1576,0.0855c0.0609,0.0182,0.1563,0.0275,0.2863,0.0275c0.1031,0,0.2076-0.0211,0.3135-0.0638
		C78.3349,53.079,78.4281,53.023,78.5084,52.9535 M78.5084,53.4561c-0.0558,0.0422-0.1249,0.0932-0.2073,0.1524
		c-0.082,0.06-0.1598,0.1071-0.2324,0.1416c-0.1018,0.0464-0.2073,0.0811-0.3164,0.1038c-0.1093,0.0226-0.2293,0.0339-0.3595,0.0339
		c-0.3067,0-0.5635-0.0954-0.7704-0.286c-0.2073-0.1911-0.3107-0.4347-0.3107-0.7315c0-0.237,0.0525-0.4305,0.1579-0.5809
		c0.1055-0.1502,0.2555-0.2689,0.4487-0.3555c0.1915-0.0866,0.4294-0.1484,0.7132-0.1851c0.2836-0.0367,0.5776-0.0635,0.8823-0.0807
		v-0.0176c0-0.1785-0.0728-0.3019-0.2181-0.37c-0.1456-0.0686-0.3601-0.1025-0.6435-0.1025c-0.1702,0-0.3522,0.0299-0.5457,0.0904
		c-0.1935,0.0605-0.3322,0.1073-0.4164,0.1398h-0.095v-0.7827c0.1093-0.0292,0.2871-0.0633,0.5332-0.1027
		c0.2465-0.0394,0.4929-0.0594,0.7402-0.0594c0.5883,0,1.0131,0.091,1.275,0.2731c0.2614,0.1818,0.392,0.4674,0.392,0.8559v2.2069
		h-1.0272V53.4561z"/>
	<path clip-path="url(#SVGID_2_)" fill-rule="evenodd" clip-rule="evenodd" fill="#FFFFFF" d="M84.2762,52.9535v-0.6778
		c-0.1392,0.0121-0.2902,0.0277-0.4525,0.0482c-0.162,0.02-0.2852,0.0438-0.3691,0.071c-0.1031,0.0323-0.1818,0.0805-0.2364,0.1431
		c-0.0545,0.0627-0.0816,0.1451-0.0816,0.2473c0,0.0677,0.0057,0.1227,0.0172,0.1651c0.0114,0.0429,0.04,0.0831,0.086,0.1218
		c0.0438,0.0387,0.0963,0.0671,0.1574,0.0855c0.0611,0.0182,0.1565,0.0275,0.2865,0.0275c0.1029,0,0.2073-0.0213,0.3133-0.0638
		C84.1032,53.079,84.1962,53.023,84.2762,52.9535 M84.2762,53.4561c-0.0556,0.0422-0.1244,0.0932-0.2069,0.1524
		c-0.0824,0.06-0.16,0.1071-0.2328,0.1416c-0.1016,0.0464-0.2069,0.0811-0.3164,0.1038c-0.1093,0.0226-0.2289,0.0339-0.3593,0.0339
		c-0.3069,0-0.5637-0.0954-0.7706-0.286c-0.2071-0.1911-0.3104-0.4347-0.3104-0.7315c0-0.237,0.0525-0.4305,0.1581-0.5809
		c0.1051-0.1504,0.255-0.2689,0.4485-0.3555c0.1917-0.0866,0.4291-0.1484,0.713-0.1851c0.2836-0.0367,0.578-0.0635,0.8825-0.0809
		v-0.0174c0-0.1785-0.0728-0.3019-0.2183-0.37c-0.1456-0.0686-0.3599-0.1025-0.6433-0.1025c-0.1704,0-0.3524,0.0299-0.5457,0.0904
		c-0.1937,0.0605-0.3324,0.1073-0.4166,0.1398h-0.0948v-0.7827c0.109-0.0292,0.2869-0.0633,0.5334-0.1027
		c0.246-0.0394,0.4929-0.0594,0.7398-0.0594c0.5883,0,1.0133,0.091,1.2749,0.2731c0.2617,0.1818,0.3922,0.4674,0.3922,0.8559v2.2069
		h-1.0274V53.4561z"/>
	<path clip-path="url(#SVGID_2_)" fill-rule="evenodd" clip-rule="evenodd" fill="#FFFFFF" d="M89.7699,53.8876
		c-0.2823,0-0.5402-0.0339-0.7735-0.1009c-0.2337-0.0675-0.4369-0.1711-0.6099-0.3113c-0.1708-0.1403-0.3034-0.3168-0.3975-0.5303
		c-0.0941-0.2133-0.1414-0.463-0.1414-0.7493c0-0.3014,0.0506-0.562,0.1513-0.7812c0.1007-0.219,0.2416-0.4004,0.4219-0.5446
		c0.1752-0.1365,0.3771-0.2363,0.6057-0.2997c0.2287-0.0635,0.4659-0.0952,0.7119-0.0952c0.221,0,0.4245,0.024,0.611,0.0721
		c0.1862,0.0481,0.3604,0.1108,0.5217,0.1875v0.8856H90.724c-0.0402-0.0345-0.0886-0.0743-0.1453-0.1203
		c-0.0567-0.046-0.1262-0.091-0.2087-0.135c-0.0787-0.042-0.1649-0.0767-0.259-0.1047c-0.0941-0.0275-0.2031-0.0418-0.3278-0.0418
		c-0.2763,0-0.489,0.0882-0.638,0.264c-0.1486,0.1754-0.2227,0.4144-0.2227,0.7159c0,0.3109,0.0761,0.5474,0.2289,0.709
		c0.1524,0.1612,0.3687,0.2418,0.6488,0.2418c0.1306,0,0.2482-0.0147,0.3526-0.0449c0.1046-0.0295,0.1913-0.0646,0.2605-0.1053
		c0.0653-0.0385,0.1227-0.0787,0.1726-0.1211c0.0499-0.0422,0.0959-0.0838,0.1381-0.1242h0.1471v0.8832
		c-0.1631,0.0767-0.3342,0.1379-0.5118,0.1827C90.1816,53.865,89.9853,53.8876,89.7699,53.8876"/>
	<path clip-path="url(#SVGID_2_)" fill-rule="evenodd" clip-rule="evenodd" fill="#FFFFFF" d="M93.81,51.5555h-0.0919
		c-0.0442-0.0158-0.1146-0.0275-0.2126-0.0352c-0.0978-0.0081-0.1792-0.0121-0.2443-0.0121c-0.1478,0-0.2781,0.0097-0.3909,0.029
		c-0.1132,0.0193-0.2348,0.0514-0.3652,0.0976v2.1643h-1.0393v-3.2354h1.0393v0.4756c0.228-0.1957,0.4263-0.326,0.5949-0.3907
		c0.1689-0.0644,0.3238-0.0965,0.4657-0.0965c0.0367,0,0.0776,0.0007,0.1236,0.0026s0.0864,0.0051,0.1207,0.0086V51.5555z"/>
	<path clip-path="url(#SVGID_2_)" fill-rule="evenodd" clip-rule="evenodd" fill="#FFFFFF" d="M97.4894,52.3764h-2.374
		c0.0156,0.2537,0.1123,0.4481,0.29,0.5831c0.1777,0.1346,0.4397,0.202,0.7856,0.202c0.2192,0,0.4314-0.0402,0.6369-0.1203
		c0.2058-0.0798,0.3678-0.166,0.4874-0.2577h0.1152v0.8352c-0.2348,0.0943-0.4558,0.1627-0.6635,0.2051
		c-0.2073,0.0427-0.4371,0.0638-0.6892,0.0638c-0.6497,0-1.1479-0.1462-1.4939-0.4382c-0.3461-0.292-0.5191-0.7082-0.5191-1.2481
		c0-0.534,0.164-0.9575,0.4916-1.2697c0.3278-0.3124,0.777-0.4685,1.3477-0.4685c0.5263,0,0.9223,0.1335,1.1877,0.3999
		c0.2654,0.2662,0.3977,0.6495,0.3977,1.1496V52.3764z M96.456,51.7681c-0.0057-0.2172-0.0596-0.381-0.161-0.4905
		c-0.1016-0.1097-0.2599-0.1647-0.4747-0.1647c-0.1994,0-0.3632,0.0519-0.492,0.1561c-0.1284,0.1036-0.2003,0.2702-0.2155,0.4991
		H96.456z"/>
	<path clip-path="url(#SVGID_2_)" fill-rule="evenodd" clip-rule="evenodd" fill="#FFFFFF" d="M99.8177,53.8876
		c-0.2825,0-0.5402-0.0339-0.7735-0.1009c-0.2337-0.0675-0.4369-0.1711-0.6099-0.3113c-0.1708-0.1403-0.3036-0.3168-0.3977-0.5303
		c-0.0943-0.2133-0.1411-0.463-0.1411-0.7493c0-0.3014,0.0501-0.5622,0.1513-0.7812c0.1007-0.219,0.2416-0.4004,0.4219-0.5446
		c0.1752-0.1365,0.3768-0.2363,0.6055-0.2997c0.2284-0.0635,0.4659-0.0952,0.7121-0.0952c0.2207,0,0.4243,0.024,0.6105,0.0721
		c0.1864,0.0481,0.3604,0.1108,0.5222,0.1875v0.8856h-0.1469c-0.0407-0.0345-0.089-0.0743-0.1456-0.1203
		c-0.0567-0.046-0.1262-0.091-0.2086-0.135c-0.0787-0.042-0.1649-0.0767-0.259-0.1047c-0.0941-0.0275-0.2031-0.0418-0.328-0.0418
		c-0.2766,0-0.489,0.0882-0.6376,0.264c-0.1488,0.1754-0.2229,0.4144-0.2229,0.7159c0,0.3109,0.0761,0.5474,0.2289,0.709
		c0.1522,0.1612,0.3683,0.2418,0.6488,0.2418c0.1306,0,0.248-0.0147,0.3524-0.0449c0.1044-0.0295,0.1913-0.0646,0.2608-0.1053
		c0.0651-0.0387,0.1222-0.0787,0.1726-0.1211c0.0499-0.0422,0.0959-0.0838,0.1383-0.1242h0.1469v0.8832
		c-0.1636,0.0767-0.3342,0.1379-0.5118,0.1827C100.2295,53.865,100.0331,53.8876,99.8177,53.8876"/>
	<path clip-path="url(#SVGID_2_)" fill-rule="evenodd" clip-rule="evenodd" fill="#FFFFFF" d="M104.7021,52.3764h-2.3736
		c0.0154,0.2537,0.1117,0.4481,0.2896,0.5831c0.1776,0.1346,0.4395,0.202,0.7855,0.202c0.219,0,0.4314-0.0402,0.6369-0.1203
		c0.2058-0.0798,0.368-0.166,0.487-0.2577h0.1154v0.8352c-0.2344,0.0941-0.456,0.1627-0.6633,0.2051
		c-0.2075,0.0427-0.4375,0.0638-0.6895,0.0638c-0.6494,0-1.1477-0.1462-1.4941-0.4386c-0.3458-0.2915-0.5191-0.7077-0.5191-1.2477
		c0-0.534,0.164-0.9575,0.492-1.2697c0.3274-0.3124,0.7768-0.4685,1.3475-0.4685c0.5265,0,0.9225,0.1335,1.1877,0.3999
		c0.2652,0.2662,0.3979,0.6495,0.3979,1.1496V52.3764z M103.669,51.7681c-0.0059-0.2172-0.0598-0.381-0.1614-0.4907
		c-0.1016-0.1095-0.2597-0.1645-0.4747-0.1645c-0.1994,0-0.3634,0.0519-0.4918,0.1559c-0.1288,0.1038-0.2001,0.2704-0.2157,0.4993
		H103.669z"/>
	<path clip-path="url(#SVGID_2_)" fill-rule="evenodd" clip-rule="evenodd" fill="#FFFFFF" d="M107.6886,51.5555h-0.0919
		c-0.0442-0.0158-0.115-0.0275-0.2128-0.0352c-0.0976-0.0081-0.1792-0.0121-0.2445-0.0121c-0.1473,0-0.2779,0.0097-0.3907,0.029
		c-0.1134,0.0193-0.2346,0.0514-0.3654,0.0976v2.1643h-1.0388v-3.2354h1.0388v0.4756c0.2284-0.1959,0.4268-0.3263,0.5952-0.3907
		c0.1686-0.0644,0.3238-0.0965,0.4659-0.0965c0.0363,0,0.0774,0.0007,0.1236,0.0026c0.0457,0.002,0.0864,0.0051,0.1207,0.0086
		V51.5555z"/>
	<path clip-path="url(#SVGID_2_)" fill-rule="evenodd" clip-rule="evenodd" fill="#F78E1E" d="M65.1206,15.5325
		c0-8.5784,6.9488-15.5326,15.5279-15.5326c8.5791,0,15.5339,6.9541,15.5339,15.5326c0,0.4802-0.0073,0.7337-0.0501,1.2026
		C96.1323,16.7351,79.3453,22.8478,65.1206,15.5325"/>
	<path clip-path="url(#SVGID_2_)" fill-rule="evenodd" clip-rule="evenodd" fill="#FFFFFF" d="M79.7322,17.4586
		c0,0-7.4699-0.2812-16.5371-5.2566c0,0-7.7658-4.579-14.6089-3.8904c0,0-6.1266,0.45-18.3815,7.3534
		c-12.1577,6.8492-12.2039,6.6474-13.9797,7.5743c-4.6188,2.411-8.2337,3.6008-11.7952,4.2373
		c-2.3235,0.4155-4.2976,0.516-4.4174,0.5303c-0.2847,0.0334,4.3268,1.7167,13.3406-1.5021c0,0,4.4174-1.1481,16.4056-8.0697
		c2.8274-1.6322,8.7183-5.2856,14.995-6.5564c5.5877-1.1309,10.7473,0.5299,13.4487,1.3877
		c2.7014,0.8581,7.3973,2.7597,9.7129,3.7288c0,0,20.7977,9.0681,40.7642-5.9505c0.5993-0.4509,3.9607-3.4386,3.2126-3.1312
		c-1.0331,0.7086-2.4677,1.6445-4.1674,2.6368C105.4453,11.8291,95.0132,18.1907,79.7322,17.4586"/>
</g>
</svg>
